<svg width="22" height="26" viewBox="0 0 22 26" fill="none" xmlns="http://www.w3.org/2000/svg">
<path d="M14.563 15.9C14.404 15.848 13.399 15.395 14.027 13.486H14.018C15.655 11.8 16.906 9.08701 16.906 6.41601C16.906 2.30901 14.175 0.156006 11.001 0.156006C7.82503 0.156006 5.10903 2.30801 5.10903 6.41601C5.10903 9.09801 6.35303 11.822 8.00003 13.504C8.64203 15.188 7.49403 15.813 7.25403 15.901C3.93003 17.103 0.0300293 19.294 0.0300293 21.457V22.268C0.0300293 25.215 5.74403 25.885 11.032 25.885C16.328 25.885 21.97 25.215 21.97 22.268V21.457C21.97 19.229 18.051 17.055 14.563 15.9Z" fill="black"/>
</svg>
